# xmcd
#
# Track frame offsets:
#	150
#	10923
#	23496
#	37269
#	54267
#	66615
#	85338
#	98661
#	109959
#	127932
#	143730
#	159003
#	172176
#	190224
#	211122
#	226245
#	240918
#	255291
#
# Disc length: 3599 seconds
#
# Revision: 1
# Processed by: cddbd v1.5.2PL0 Copyright (c) Steve Scherf et al.
# Submitted via: audiograbber 1.83.01
#
DISCID=e10e0d12
DTITLE=The Essential Highwaymen - The Highwaymen CD1
DYEAR=2010
DGENRE=Country
TTITLE0=Waylon Jennings - The Taker
TTITLE1=Highwayman - Big River (Album Version)
TTITLE2=Johnny Cash - Even Cowgirls Get The Blues (Album Version)
TTITLE3=Waylon Jennings - Deportee (Plane Wreck at Los Gatos) (album version)
TTITLE4=Johnny Cash - I Wish I Was Crazy Again (Album Version)
TTITLE5=Kris Kristofferson - Casey's Last Ride
TTITLE6=Waylon Jennings and Willie Nelson - Good Hearted Woman
TTITLE7=Johnny Cash - LOVE IS THE WAY
TTITLE8=Highwayman - Living Legend (Album Version)
TTITLE9=Kris Kristofferson - If You Don't Like Hank Williams (Album Version)
TTITLE10=Highwaymen - A Backstage Pass
TTITLE11=Waylon Jennings - Are You Sure Hank Done It This Way
TTITLE12=Willie Nelson - Help Me Make It Through The Night
TTITLE13=Highwaymen - Desperados Waiting For A Train (Live April 24,1993 - Farm 
TTITLE13=Aid Concert For America, Ames, Iowa)
TTITLE14=Waylon Jennings - Luckenbach, Texas (Back To The Basics Of Love)
TTITLE15=Highwaymen - The Devil's Right Hand
TTITLE16=Waylon Jennings - The Last Cowboy Song (Album Version)
TTITLE17=Willie Nelson - Eye Of The Storm
EXTD=
EXTT0=
EXTT1=
EXTT2=
EXTT3=
EXTT4=
EXTT5=
EXTT6=
EXTT7=
EXTT8=
EXTT9=
EXTT10=
EXTT11=
EXTT12=
EXTT13=
EXTT14=
EXTT15=
EXTT16=
EXTT17=
PLAYORDER=
